<svg width="21" height="20" viewBox="0 0 21 20" fill="none" xmlns="http://www.w3.org/2000/svg">
<path d="M10.3247 0.501133C4.80065 0.603072 0.406891 5.04657 0.506144 10.4251C0.585568 14.729 3.51743 18.3259 7.513 19.5394C8.01461 19.6219 8.19235 19.3171 8.18758 19.0585C8.18331 18.8273 8.16367 18.2146 8.14452 17.4028C5.37416 18.0413 4.75265 16.1583 4.75265 16.1583C4.27698 15.0426 3.61405 14.7541 3.61405 14.7541C2.69723 14.167 3.67312 14.1614 3.67312 14.1614C4.67837 14.2106 5.22305 15.1367 5.22305 15.1367C6.14204 16.6094 7.58302 16.1523 8.15 15.8932C8.22836 15.2613 8.4779 14.8279 8.75919 14.579C6.53424 14.3763 4.18502 13.5819 4.11615 9.85031C4.09654 8.78733 4.46794 7.9113 5.09692 7.21807C4.9799 6.97401 4.62418 5.98995 5.13684 4.63871C5.13684 4.63871 5.96938 4.36227 7.9048 5.58653C8.70067 5.35537 9.54854 5.23232 10.3983 5.21168C11.2483 5.20095 12.1001 5.29264 12.9039 5.49428C14.7804 4.19967 15.6226 4.44521 15.6226 4.44521C16.1847 5.77661 15.8655 6.77313 15.7701 7.02111C16.4201 7.69074 16.8235 8.55247 16.8432 9.61545C16.9122 13.3569 14.5903 14.2235 12.3701 14.5041C12.7254 14.79 13.0614 15.3812 13.0782 16.2938C13.1023 17.5971 13.1091 18.6447 13.115 18.961C13.1197 19.2162 13.3003 19.5178 13.8109 19.4108C17.7874 18.0585 20.582 14.3534 20.5027 10.056C20.4035 4.67756 15.8463 0.399239 10.3247 0.501133Z" fill="#212121"/>
</svg>
