<svg width="22" height="22" viewBox="0 0 22 22" fill="none" xmlns="http://www.w3.org/2000/svg">
<path d="M14.7167 0.98758L7.21676 1.01252C3.76553 1.02399 0.976102 3.83203 0.987576 7.28326L1.01251 14.7832C1.02399 18.2344 3.83203 21.0239 7.28326 21.0124L14.7832 20.9875C18.2344 20.976 21.0239 18.168 21.0124 14.7167L20.9875 7.21677C20.976 3.76553 18.168 0.976105 14.7167 0.98758ZM19.1374 14.723C19.1454 17.1354 17.1895 19.1045 14.777 19.1125L7.27702 19.1374C4.86454 19.1454 2.89552 17.1895 2.8875 14.777L2.86257 7.27703C2.85455 4.86454 4.81051 2.89553 7.223 2.8875L14.723 2.86257C17.1354 2.85455 19.1045 4.81051 19.1125 7.223L19.1374 14.723Z" fill="black"/>
<path d="M10.9834 6.00002C8.22214 6.0092 5.99084 8.25538 6.00002 11.0166C6.0092 13.7779 8.25538 16.0091 11.0166 16C13.7779 15.9908 16.0091 13.7446 16 10.9834C15.9908 8.22213 13.7446 5.99084 10.9834 6.00002ZM11.0104 14.125C9.28789 14.1307 7.88074 12.7329 7.87501 11.0104C7.86928 9.28664 9.26711 7.88074 10.9896 7.87501C12.7121 7.86928 14.1192 9.26586 14.125 10.9896C14.1307 12.7121 12.7329 14.1192 11.0104 14.125Z" fill="black"/>
<path d="M16.3593 6.27338C16.7273 6.27216 17.0246 5.97288 17.0233 5.60492C17.0221 5.23697 16.7228 4.93967 16.3549 4.9409C15.9869 4.94212 15.6896 5.2414 15.6908 5.60935C15.6921 5.97731 15.9913 6.27461 16.3593 6.27338Z" fill="black"/>
</svg>
